#tb 0: 1/25
0,          0,          0,        1,   168240, 116019db2e5350536a51e8d7a609c2b9
0,          1,          1,        1,   167868, 0700499b0f8b9b09601b969caa2c2efd
0,          2,          2,        1,   169216, 890e18b99ccca7601d1f68efd19e906b
0,          3,          3,        1,   168156, b9bf194312e492f1cf3ee624e08bb30a
0,          4,          4,        1,   167680, 53383c3fc77f6e35b58525ab2440fe85
0,          5,          5,        1,   168516, 8c7150e8246b8c9a2f1985a0f80d68a7
0,          6,          6,        1,   167712, d46508dad0cf7cd3f7e1aca50a16537b
0,          7,          7,        1,   168172, 1b2643b67d0dddc04e65ff1e751b11ba
0,          8,          8,        1,   167388, 0104ea69082aac2190a96bbe7971eac7
0,          9,          9,        1,   168300, 6768cdc8383c4abdee474edddaab452b
0,         10,         10,        1,   167960, ef3e8ed5dfc2dbdae9ac818b0c9964f7
0,         11,         11,        1,   168024, 98d0fd2d82c43cabc4be25a304aa3e3a
0,         12,         12,        1,   166460, db5cf5154a710972d2f2468cf1e5694c
0,         13,         13,        1,   167284, 7caf2ab0d10c138a06846680145e18de
0,         14,         14,        1,   168788, f7c071cc22bc822cd780df2ae761c98f
0,         15,         15,        1,   168312, defc3b454e98c362e155e63765e5e7fe
0,         16,         16,        1,   167888, 37713f91a4d342fab759a390eb0e5858
0,         17,         17,        1,   167428, 56c9e1e039ec4ca3bad163c5f7356398
0,         18,         18,        1,   166792, a67cc85635ff5c706c37273c8f6ace48
0,         19,         19,        1,   167220, 797aa3302fa9b865e28ac517beff2fe7
0,         20,         20,        1,   166612, 160d49cb2b549972ed15165221392fe8
0,         21,         21,        1,   166676, fcd0bdcae5b009f34074b56ab566d92f
0,         22,         22,        1,   167792, cdc6496a8ca7e41c8f23e56a2f995a07
0,         23,         23,        1,   168040, 0c56322c9cde9e76f3a6a732fdb861bc
0,         24,         24,        1,   168656, ed627dd70d9f1335c844ee7a62db29a0
0,         25,         25,        1,   168456, b3282f8f1792206c4fed9101213032da
0,         26,         26,        1,   168120, 43b3094cfa9e5985fa447bf25e0a8bcc
0,         27,         27,        1,   167480, c1a58fd31844b0fa99a323921c4c3269
0,         28,         28,        1,   165320, b0f33fddd18a2a74177721e8d1cb13e3
0,         29,         29,        1,   165104, 2413e9a95b02a64629cd7ce6d4de799b
0,         30,         30,        1,   166604, b17539db5a3f394632f9afadcaeaca38
0,         31,         31,        1,   167500, 178dd023eee970d729089e0172659c27
0,         32,         32,        1,   167264, ff5afb31aff707ded3c472044f685ddc
0,         33,         33,        1,   169008, 99edb6139d09310a3fc686e76f982ae9
0,         34,         34,        1,   168108, 66a41bba03235e2a501520198a415a7a
0,         35,         35,        1,   168016, 028d708a5fcd6e708a3ae471052f5f00
0,         36,         36,        1,   166984, 585c78a2e01493581dfbb395db7be582
0,         37,         37,        1,   167388, 4ae14a7cb1016a19ff3bfc067797e774
0,         38,         38,        1,   165388, fa0f0cc6c5efcdea4c15033ff104aee1
0,         39,         39,        1,   165524, 868c476a1a007be410b05ba24f9d3efc
0,         40,         40,        1,   165784, 4bfbcdcd82bb04c9aaf0a8f192b67d52
0,         41,         41,        1,   166404, 09ff4d32a36dd63b035e2b430b790687
0,         42,         42,        1,   166872, 3ef565aac161a5d9eb91b74496669a68
0,         43,         43,        1,   166772, 1d7e9b7115408887a564bff985e92da3
0,         44,         44,        1,   166588, 48e3e7c6b5f98e206f3837ef163d26ab
0,         45,         45,        1,   164396, ff338e650a3475185f03842d7a691680
0,         46,         46,        1,   163504, 21cba98fb1c03ffc149e582a4e70404c
0,         47,         47,        1,   164248, f92c93800bff6486f09e170bead7f470
0,         48,         48,        1,   164444, dc04c0e3b86bf42363046a2a56c76c82
0,         49,         49,        1,   163844, 48007251ab2dd2d0228ac9095b190718
